<?xml version="1.0" encoding="UTF-8" standalone="no"?>
<svg
   xmlns:dc="http://purl.org/dc/elements/1.1/"
   xmlns:cc="http://creativecommons.org/ns#"
   xmlns:rdf="http://www.w3.org/1999/02/22-rdf-syntax-ns#"
   xmlns:svg="http://www.w3.org/2000/svg"
   xmlns="http://www.w3.org/2000/svg"
   xmlns:sodipodi="http://sodipodi.sourceforge.net/DTD/sodipodi-0.dtd"
   xmlns:inkscape="http://www.inkscape.org/namespaces/inkscape"
   role="img"
   aria-labelledby="title  desc"
   xml:space="preserve"
   enable-background="new 0 0 280 32.755"
   viewBox="0 0 52.672001 30.1"
   version="1.1"
   id="svg2"
   inkscape:version="0.91 r13725"
   sodipodi:docname="microbit_black.svg"
   width="52.672001"
   height="30.1"><sodipodi:namedview
     pagecolor="#ff00ff"
     bordercolor="#666666"
     borderopacity="1"
     objecttolerance="10"
     gridtolerance="10"
     guidetolerance="10"
     inkscape:pageopacity="0"
     inkscape:pageshadow="2"
     inkscape:window-width="1920"
     inkscape:window-height="1030"
     id="namedview14"
     showgrid="false"
     inkscape:zoom="2.0836233"
     inkscape:cx="-10.916382"
     inkscape:cy="3.8252767"
     inkscape:window-x="0"
     inkscape:window-y="0"
     inkscape:window-maximized="1"
     inkscape:current-layer="svg2"
     fit-margin-top="0"
     fit-margin-left="0"
     fit-margin-right="0"
     fit-margin-bottom="0" /><title
     id="title"
     lang="en-GB">BBC micro:bit</title><desc
     id="desc"
     lang="en-GB">BBC micro:bit logo</desc><metadata
     id="metadata37"><rdf:rdf><cc:work
         rdf:about=""><dc:format>image/svg+xml</dc:format><dc:type
           rdf:resource="http://purl.org/dc/dcmitype/StillImage" /><dc:title /></cc:work></rdf:rdf><rdf:RDF><cc:Work
         rdf:about=""><dc:format>image/svg+xml</dc:format><dc:type
           rdf:resource="http://purl.org/dc/dcmitype/StillImage" /><dc:title>BBC micro:bit</dc:title></cc:Work></rdf:RDF></metadata><defs
     id="defs35" /><path
     inkscape:connector-curvature="0"
     class=""
     d="m 37.362999,18.091 c -1.677,0 -3.035,-1.364 -3.035,-3.042 0,-1.678 1.357,-3.038 3.035,-3.038 1.684,0 3.039,1.36 3.039,3.038 0,1.678 -1.355,3.042 -3.039,3.042 m -22.311,-6.077 c -1.677,0 -3.042,1.357 -3.042,3.035 0,1.678 1.363,3.042 3.042,3.042 1.674,0 3.036,-1.364 3.036,-3.042 0,-1.678 -1.363,-3.035 -3.036,-3.035 m -0.003,-5.99 22.576,0 c 4.979,0 9.027,4.047 9.027,9.027 0,4.979 -4.049,9.031 -9.027,9.031 l -22.576,0 c -4.977,0 -9.029999,-4.053 -9.029999,-9.031 -0.001,-4.98 4.052999,-9.027 9.029999,-9.027 m 22.576,24.076 c 8.299,0 15.047,-6.75 15.047,-15.049 0,-8.299 -6.748,-15.051 -15.047,-15.051 l -22.576,0 C 6.75,0 0,6.752 0,15.051 0,23.35 6.75,30.1 15.048999,30.1 l 22.576,0"
     id="path21"
     style="fill:#000000"
     sodipodi:nodetypes="csssccsssccsssscccsssssc" /></svg>