<svg id="svg3464" xmlns="http://www.w3.org/2000/svg" width="500" height="200" viewBox="0 0 500 200">
  <title>logo_mixteen_inv</title>
  <path d="M92.65,91.8,117,69.56h7.12v60H108.33V98.76L92.65,113.08,76.89,98.84v30.72H61v-60h7.12Z" style="fill: #fff"/>
  <path d="M136.17,69.89h15.76v59.67H136.17Z" style="fill: #fff"/>
  <path d="M227.45,69.48h47.28V85.16H258.81v44.4H243V85.16h-15.6Z" style="fill: #fff"/>
  <path d="M432.47,129.56l-28.32-28.4v28.4H388.39v-60h6.4l28.4,28.32V69.56H439v60Z" style="fill: #fff"/>
  <polygon points="220.59 129.37 202.28 129.37 193 115.59 202.13 101.95 220.59 129.37" style="fill: #ff8d4e"/>
  <polygon points="202.34 94.51 220.51 69.61 202.21 69.61 193.14 81.92 202.34 94.51" style="fill: #c25581"/>
  <polygon points="199.6 98.31 178.62 69.7 160.31 69.7 181.22 98.31 160.24 129.46 178.55 129.46 199.6 98.31" style="fill: #fff"/>
  <path d="M327.9,103q0-9.74-3.36-15.9A20.85,20.85,0,0,0,316,78.2a23.13,23.13,0,0,0-10.81-2.71,28.54,28.54,0,0,0-14.44,3.42,21.77,21.77,0,0,0-8.91,9.43,30.45,30.45,0,0,0-3,13.62,31.18,31.18,0,0,0,3,13.8,22.43,22.43,0,0,0,8.91,9.64,27.72,27.72,0,0,0,14.44,3.55,41.42,41.42,0,0,0,12.93-1.7,46.48,46.48,0,0,0,8.64-3.78V112.16q-9.93,5.17-18.14,5.17a13.32,13.32,0,0,1-13-10.7H327.9ZM304.17,86.7a7.35,7.35,0,0,1,6.29,3,12.51,12.51,0,0,1,2.16,7c-.93-1.88-4.49-3.27-8.75-3.27s-7.8,1.39-8.75,3.26a11.53,11.53,0,0,1,2.47-7A8.12,8.12,0,0,1,304.17,86.7Z" style="fill: #ff8d4e"/>
  <path d="M379.63,84.19a24.84,24.84,0,0,0-10.17-10.76q-6.8-3.91-16.48-3.91a26.39,26.39,0,0,0-12.33,3.1,23.79,23.79,0,0,0-9.78,10.13,27.87,27.87,0,0,0-2.34,5.85A39.58,39.58,0,0,1,330.9,103v2.08h33a15.2,15.2,0,0,1-14.88,12.21c-5.87,0-12.32-1.76-19.33-5.23v13a56.12,56.12,0,0,0,8.5,3.57A47.26,47.26,0,0,0,353,130.52q9.68,0,16.48-4.05a25.59,25.59,0,0,0,10.17-11A35.58,35.58,0,0,0,383,99.73,34.75,34.75,0,0,0,379.63,84.19Zm-25.51-1.88a9.27,9.27,0,0,1,7.49,3.44,12.45,12.45,0,0,1,2.67,6.32c-1.79-1.73-5.3-2.91-9.34-2.91-5.34,0-9.74,2.05-10.48,4.72a14.38,14.38,0,0,1,2.47-8.19A8.39,8.39,0,0,1,354.11,82.31Z" style="fill: #c25581"/>
  <path d="M327.9,103q0-9.74-3.36-15.9A20.85,20.85,0,0,0,316,78.2a23.13,23.13,0,0,0-10.81-2.71,28.54,28.54,0,0,0-14.44,3.42,21.77,21.77,0,0,0-8.91,9.43,30.45,30.45,0,0,0-3,13.62,31.18,31.18,0,0,0,3,13.8,22.43,22.43,0,0,0,8.91,9.64,27.72,27.72,0,0,0,14.44,3.55,41.42,41.42,0,0,0,12.93-1.7,46.48,46.48,0,0,0,8.64-3.78V112.16q-9.93,5.17-18.14,5.17a13.32,13.32,0,0,1-13-10.7H327.9ZM304.17,86.7a7.35,7.35,0,0,1,6.29,3,12.51,12.51,0,0,1,2.16,7c-.93-1.88-4.49-3.27-8.75-3.27s-7.8,1.39-8.75,3.26a11.53,11.53,0,0,1,2.47-7A8.12,8.12,0,0,1,304.17,86.7Z" style="fill: #ff8d4e"/>
  <path d="M379.63,84.19a24.84,24.84,0,0,0-10.17-10.76q-6.8-3.91-16.48-3.91a26.39,26.39,0,0,0-12.33,3.1,23.79,23.79,0,0,0-9.78,10.13,27.87,27.87,0,0,0-2.34,5.85A39.58,39.58,0,0,1,330.9,103v2.08h33a15.2,15.2,0,0,1-14.88,12.21c-5.87,0-12.32-1.76-19.33-5.23v13a56.12,56.12,0,0,0,8.5,3.57A47.26,47.26,0,0,0,353,130.52q9.68,0,16.48-4.05a25.59,25.59,0,0,0,10.17-11A35.58,35.58,0,0,0,383,99.73,34.75,34.75,0,0,0,379.63,84.19Zm-25.51-1.88a9.27,9.27,0,0,1,7.49,3.44,12.45,12.45,0,0,1,2.67,6.32c-1.79-1.73-5.3-2.91-9.34-2.91-5.34,0-9.74,2.05-10.48,4.72a14.38,14.38,0,0,1,2.47-8.19A8.39,8.39,0,0,1,354.11,82.31Z" style="fill: #c25581"/>
</svg>
